<svg xmlns="http://www.w3.org/2000/svg" viewBox="0 0 221.05 221.05"><defs><style>.cls-1{fill:#fff;}</style></defs><g id="Capa_2" data-name="Capa 2"><g id="Capa_1-2" data-name="Capa 1"><g id="Capa_1-2-2" data-name="Capa 1-2"><path class="cls-1" d="M0,117.91V103.24c.14-.62.32-1.23.4-1.86.5-3.77.75-7.58,1.49-11.3,5.4-27.31,19-49.77,41-66.76C69,3.19,98.59-3.89,131,2c27.15,5,49.43,18.65,66.4,40.4C217.83,68.67,225,98.51,219,131.2c-5,27.06-18.78,49.11-40.32,66.22a106.44,106.44,0,0,1-49,21.92c-3.94.67-7.93,1.15-11.89,1.71H103.16c-.7-.14-1.39-.31-2.09-.41-4.47-.64-9-1-13.4-1.94A109,109,0,0,1,28.9,185,107.6,107.6,0,0,1,1.71,129.78C1,125.85.57,121.87,0,117.91Zm14.45-7.51a96,96,0,1,0,96.33-95.85A96,96,0,0,0,14.45,110.4Z"/><path class="cls-1" d="M117,162.44c-28.81.22-51-19.32-54.47-45.07a51.91,51.91,0,0,1,94.41-36,7.21,7.21,0,0,1-11.33,8.9c-2.88-3.1-5.48-6.55-8.73-9.18-18-14.56-45.75-8.41-56.17,12.27-11.13,22.1,1,48.39,25.15,53.65,15.22,3.31,28-1.61,37.88-13.82.81-1,1.5-2.11,2.33-3.11a7.2,7.2,0,0,1,11.6,8.5,51.7,51.7,0,0,1-13.61,14.28C135.09,159.2,125.06,162.45,117,162.44Z"/></g></g></g></svg>