<svg xmlns="http://www.w3.org/2000/svg" viewBox="0 0 221.08 221.04"><g id="Capa_2" data-name="Capa 2"><g id="Capa_1-2" data-name="Capa 1"><path d="M0,117.9V103.23c.14-.62.32-1.23.4-1.86.5-3.77.75-7.58,1.49-11.3,5.4-27.31,19-49.77,41-66.76C69,3.18,98.59-3.9,131,2c27.15,5,49.43,18.65,66.4,40.4C217.83,68.66,225,98.5,219,131.19c-5,27.06-18.78,49.11-40.32,66.22a106.49,106.49,0,0,1-49,21.92c-3.94.67-7.93,1.15-11.89,1.71H103.16c-.7-.14-1.39-.31-2.09-.41-4.47-.64-9-1-13.4-1.94A109,109,0,0,1,28.9,185,107.66,107.66,0,0,1,1.71,129.77C1,125.84.57,121.86,0,117.9Zm14.45-7.51a96,96,0,1,0,96.33-95.85A96.11,96.11,0,0,0,14.45,110.39Z"/><path d="M117,162.43c-28.81.22-51.05-19.32-54.47-45.07a51.91,51.91,0,0,1,94.41-36,7.21,7.21,0,0,1-11.33,8.9c-2.88-3.1-5.48-6.55-8.73-9.18-18-14.56-45.75-8.41-56.17,12.27-11.13,22.1,1,48.39,25.15,53.65,15.22,3.31,28-1.61,37.88-13.82.81-1,1.5-2.11,2.33-3.11a7.14,7.14,0,0,1,9.85-1.3,7.21,7.21,0,0,1,1.75,9.8,51.84,51.84,0,0,1-13.61,14.28C135.09,159.19,125.06,162.44,117,162.43Z"/></g></g></svg>