<svg xmlns="http://www.w3.org/2000/svg" viewBox="0 0 84.92 81.49"><defs><style>.cls-1{fill:#fff;}</style></defs><g id="Capa_2" data-name="Capa 2"><g id="Capa_1-2" data-name="Capa 1"><g id="Capa_2-2" data-name="Capa 2"><g id="Capa_1-2-2" data-name="Capa 1-2"><path class="cls-1" d="M36.87,52.73V5.48A5.38,5.38,0,0,1,42.15,0,5.3,5.3,0,0,1,45,.76a5.22,5.22,0,0,1,2.67,4.86V53c.36-.3.59-.46.79-.65,4.4-4.24,8.78-8.5,13.18-12.73a4.34,4.34,0,0,1,5.15-.87c2.06,1.08,3.25,3,2.84,5a5.06,5.06,0,0,1-1.31,2.45q-11.46,11.22-23,22.33a4.31,4.31,0,0,1-6.09.08l-.09-.08Q27.74,57.3,16.38,46.06a4.1,4.1,0,0,1-.5-5.77,4.62,4.62,0,0,1,.5-.49C18.5,37.6,21,37.41,23,39.38c4.29,4.18,8.54,8.41,12.81,12.62.27.26.51.56.77.84Z"/><path class="cls-1" d="M76.92,51h8V65.77A15.55,15.55,0,0,1,69.51,81.44h-.09q-27,.11-54,0A15.54,15.54,0,0,1,0,65.78V51H8V65.46a7.72,7.72,0,0,0,7.29,8.14,7.48,7.48,0,0,0,.82,0H68.73c4.92,0,8.17-3.26,8.19-8.18V51Z"/></g></g></g></g></svg>