<svg xmlns="http://www.w3.org/2000/svg" viewBox="0 0 84.95 81.46"><g id="Capa_2" data-name="Capa 2"><g id="Capa_1-2" data-name="Capa 1"><path d="M36.87,52.73v-2q0-22.62,0-45.25A5.38,5.38,0,0,1,45,.76a5.23,5.23,0,0,1,2.67,4.86q0,22.91,0,45.82V53c.36-.3.59-.46.79-.65,4.4-4.24,8.78-8.5,13.18-12.73a4.34,4.34,0,0,1,5.15-.87c2.06,1.08,3.25,3,2.84,5a5,5,0,0,1-1.31,2.45q-11.46,11.22-23,22.33a4.31,4.31,0,0,1-6.18,0Q27.74,57.3,16.38,46.06a4.09,4.09,0,0,1,0-6.26C18.5,37.6,21,37.41,23,39.38c4.29,4.18,8.54,8.41,12.81,12.62.27.26.51.56.77.84Z"/><path d="M76.92,51h8v1.25c0,4.5,0,9,0,13.52a15.54,15.54,0,0,1-15.5,15.67q-27,.11-54,0A15.54,15.54,0,0,1,0,65.71V51H8c0,.38,0,.78,0,1.18C8,56.6,8,61,8,65.46a7.73,7.73,0,0,0,8.11,8.15H68.73c4.92,0,8.17-3.26,8.19-8.18,0-4.39,0-8.78,0-13.18Z"/></g></g></svg>